HIERARCHY
ROOT Root
{
  OFFSET 0.0 0.0 0.0
  CHANNELS 6 Xposition Yposition Zposition Zrotation Yrotation Xrotation
  JOINT Hips
  {
    OFFSET 0.0 100.0 0.0
    CHANNELS 6 Xposition Yposition Zposition Zrotation Yrotation Xrotation
    JOINT Spine1
    {
      OFFSET 5.003913 -0.037094 -0.013727
      CHANNELS 3 Zrotation Yrotation Xrotation
      JOINT Spine2
      {
        OFFSET 7.125363 -1e-06 0.0
        CHANNELS 3 Zrotation Yrotation Xrotation
        JOINT Chest
        {
          OFFSET 7.594027 1e-06 0.0
          CHANNELS 3 Zrotation Yrotation Xrotation
          JOINT Neck1
          {
            OFFSET 26.313086 -0.460272 -0.181672
            CHANNELS 3 Zrotation Yrotation Xrotation
            JOINT Neck2
            {
              OFFSET 8.045911 0.0 0.0
              CHANNELS 3 Zrotation Yrotation Xrotation
              JOINT Head
              {
                OFFSET 6.432774 0.0 0.0
                CHANNELS 3 Zrotation Yrotation Xrotation
                JOINT HeadEnd
                {
                  OFFSET 16.169773 0.06451 0.00362
                  CHANNELS 3 Zrotation Yrotation Xrotation
                }
                JOINT Jaw
                {
                  OFFSET 0.108741 3.12938 0.002639
                  CHANNELS 3 Zrotation Yrotation Xrotation
                }
                JOINT LeftEye
                {
                  OFFSET 4.45173 8.166359 3.206392
                  CHANNELS 3 Zrotation Yrotation Xrotation
                }
                JOINT RightEye
                {
                  OFFSET 4.436895 8.135758 -3.222429
                  CHANNELS 3 Zrotation Yrotation Xrotation
                }
              }
            }
          }
          JOINT LeftShoulder
          {
            OFFSET 23.218927 5.195579 1.621656
            CHANNELS 3 Zrotation Yrotation Xrotation
            JOINT LeftArm
            {
              OFFSET 15.902118 2e-06 -2e-06
              CHANNELS 3 Zrotation Yrotation Xrotation
              JOINT LeftForeArm
              {
                OFFSET 28.739307 0.0 -1e-06
                CHANNELS 3 Zrotation Yrotation Xrotation
                JOINT LeftHand
                {
                  OFFSET 27.093981 -4e-06 0.0
                  CHANNELS 3 Zrotation Yrotation Xrotation
                  JOINT LeftHandThumb1
                  {
                    OFFSET 2.276781 3.380274 0.83384
                    CHANNELS 3 Zrotation Yrotation Xrotation
                    JOINT LeftHandThumb2
                    {
                      OFFSET 4.705309 -1e-06 -1e-06
                      CHANNELS 3 Zrotation Yrotation Xrotation
                      JOINT LeftHandThumb3
                      {
                        OFFSET 2.798515 0.0 3e-06
                        CHANNELS 3 Zrotation Yrotation Xrotation
                        JOINT LeftHandThumbEnd
                        {
                          OFFSET 3.180793 4e-06 -4e-06
                          CHANNELS 3 Zrotation Yrotation Xrotation
                        }
                      }
                    }
                  }
                  JOINT LeftHandIndex1
                  {
                    OFFSET 3.247786 2.352677 0.137192
                    CHANNELS 3 Zrotation Yrotation Xrotation
                    JOINT LeftHandIndex2
                    {
                      OFFSET 6.367095 1e-06 0.0
                      CHANNELS 3 Zrotation Yrotation Xrotation
                      JOINT LeftHandIndex3
                      {
                        OFFSET 3.662364 0.0 0.0
                        CHANNELS 3 Zrotation Yrotation Xrotation
                        JOINT LeftHandIndex4
                        {
                          OFFSET 2.329242 4e-06 -4e-06
                          CHANNELS 3 Zrotation Yrotation Xrotation
                          JOINT LeftHandIndexEnd
                          {
                            OFFSET 2.767823 1e-06 0.0
                            CHANNELS 3 Zrotation Yrotation Xrotation
                          }
                        }
                      }
                    }
                  }
                  JOINT LeftHandMiddle1
                  {
                    OFFSET 3.163612 0.945023 -0.406112
                    CHANNELS 3 Zrotation Yrotation Xrotation
                    JOINT LeftHandMiddle2
                    {
                      OFFSET 6.276789 3e-06 0.0
                      CHANNELS 3 Zrotation Yrotation Xrotation
                      JOINT LeftHandMiddle3
                      {
                        OFFSET 4.35652 -1e-06 4e-06
                        CHANNELS 3 Zrotation Yrotation Xrotation
                        JOINT LeftHandMiddle4
                        {
                          OFFSET 2.996877 0.0 8e-06
                          CHANNELS 3 Zrotation Yrotation Xrotation
                          JOINT LeftHandMiddleEnd
                          {
                            OFFSET 2.323256 3e-06 -4e-06
                            CHANNELS 3 Zrotation Yrotation Xrotation
                          }
                        }
                      }
                    }
                  }
                  JOINT LeftHandRing1
                  {
                    OFFSET 2.882606 -0.309162 0.107445
                    CHANNELS 3 Zrotation Yrotation Xrotation
                    JOINT LeftHandRing2
                    {
                      OFFSET 6.033198 0.0 4e-06
                      CHANNELS 3 Zrotation Yrotation Xrotation
                      JOINT LeftHandRing3
                      {
                        OFFSET 4.350578 3e-06 0.0
                        CHANNELS 3 Zrotation Yrotation Xrotation
                        JOINT LeftHandRing4
                        {
                          OFFSET 2.651321 2e-06 -7e-06
                          CHANNELS 3 Zrotation Yrotation Xrotation
                          JOINT LeftHandRingEnd
                          {
                            OFFSET 1.937663 1e-06 -4e-06
                            CHANNELS 3 Zrotation Yrotation Xrotation
                          }
                        }
                      }
                    }
                  }
                  JOINT LeftHandPinky1
                  {
                    OFFSET 2.865315 -1.525436 0.575687
                    CHANNELS 3 Zrotation Yrotation Xrotation
                    JOINT LeftHandPinky2
                    {
                      OFFSET 5.54936 1e-06 -8e-06
                      CHANNELS 3 Zrotation Yrotation Xrotation
                      JOINT LeftHandPinky3
                      {
                        OFFSET 3.070974 0.0 -4e-06
                        CHANNELS 3 Zrotation Yrotation Xrotation
                        JOINT LeftHandPinky4
                        {
                          OFFSET 1.549672 1e-06 0.0
                          CHANNELS 3 Zrotation Yrotation Xrotation
                          JOINT LeftHandPinkyEnd
                          {
                            OFFSET 1.952123 0.0 0.0
                            CHANNELS 3 Zrotation Yrotation Xrotation
                          }
                        }
                      }
                    }
                  }
                }
              }
            }
          }
          JOINT RightShoulder
          {
            OFFSET 23.161716 5.296122 -1.380114
            CHANNELS 3 Zrotation Yrotation Xrotation
            JOINT RightArm
            {
              OFFSET -16.027195 -2e-06 1.1e-05
              CHANNELS 3 Zrotation Yrotation Xrotation
              JOINT RightForeArm
              {
                OFFSET -28.736639 4e-06 2e-06
                CHANNELS 3 Zrotation Yrotation Xrotation
                JOINT RightHand
                {
                  OFFSET -27.133619 6e-06 0.0
                  CHANNELS 3 Zrotation Yrotation Xrotation
                  JOINT RightHandThumb1
                  {
                    OFFSET -2.274328 -3.351035 -0.83067
                    CHANNELS 3 Zrotation Yrotation Xrotation
                    JOINT RightHandThumb2
                    {
                      OFFSET -4.703594 -3e-06 2e-06
                      CHANNELS 3 Zrotation Yrotation Xrotation
                      JOINT RightHandThumb3
                      {
                        OFFSET -2.794935 -4e-06 -3e-06
                        CHANNELS 3 Zrotation Yrotation Xrotation
                        JOINT RightHandThumbEnd
                        {
                          OFFSET -3.183852 4e-06 1e-06
                          CHANNELS 3 Zrotation Yrotation Xrotation
                        }
                      }
                    }
                  }
                  JOINT RightHandIndex1
                  {
                    OFFSET -3.253496 -2.33755 -0.127667
                    CHANNELS 3 Zrotation Yrotation Xrotation
                    JOINT RightHandIndex2
                    {
                      OFFSET -6.344434 0.0 0.0
                      CHANNELS 3 Zrotation Yrotation Xrotation
                      JOINT RightHandIndex3
                      {
                        OFFSET -3.654871 0.0 -8e-06
                        CHANNELS 3 Zrotation Yrotation Xrotation
                        JOINT RightHandIndex4
                        {
                          OFFSET -2.327586 -1e-06 0.0
                          CHANNELS 3 Zrotation Yrotation Xrotation
                          JOINT RightHandIndexEnd
                          {
                            OFFSET -2.770001 3e-06 8e-06
                            CHANNELS 3 Zrotation Yrotation Xrotation
                          }
                        }
                      }
                    }
                  }
                  JOINT RightHandMiddle1
                  {
                    OFFSET -3.168223 -0.944764 0.411762
                    CHANNELS 3 Zrotation Yrotation Xrotation
                    JOINT RightHandMiddle2
                    {
                      OFFSET -6.266691 -1e-06 -4e-06
                      CHANNELS 3 Zrotation Yrotation Xrotation
                      JOINT RightHandMiddle3
                      {
                        OFFSET -4.348901 0.0 0.0
                        CHANNELS 3 Zrotation Yrotation Xrotation
                        JOINT RightHandMiddle4
                        {
                          OFFSET -3.00024 2e-06 -4e-06
                          CHANNELS 3 Zrotation Yrotation Xrotation
                          JOINT RightHandMiddleEnd
                          {
                            OFFSET -2.321477 -4e-06 -4e-06
                            CHANNELS 3 Zrotation Yrotation Xrotation
                          }
                        }
                      }
                    }
                  }
                  JOINT RightHandRing1
                  {
                    OFFSET -2.885654 0.293261 -0.119232
                    CHANNELS 3 Zrotation Yrotation Xrotation
                    JOINT RightHandRing2
                    {
                      OFFSET -6.032835 -1e-06 -4e-06
                      CHANNELS 3 Zrotation Yrotation Xrotation
                      JOINT RightHandRing3
                      {
                        OFFSET -4.33881 0.0 -4e-06
                        CHANNELS 3 Zrotation Yrotation Xrotation
                        JOINT RightHandRing4
                        {
                          OFFSET -2.654903 -4e-06 -4e-06
                          CHANNELS 3 Zrotation Yrotation Xrotation
                          JOINT RightHandRingEnd
                          {
                            OFFSET -1.935122 0.0 4e-06
                            CHANNELS 3 Zrotation Yrotation Xrotation
                          }
                        }
                      }
                    }
                  }
                  JOINT RightHandPinky1
                  {
                    OFFSET -2.866241 1.503904 -0.60527
                    CHANNELS 3 Zrotation Yrotation Xrotation
                    JOINT RightHandPinky2
                    {
                      OFFSET -5.553177 -2e-06 0.0
                      CHANNELS 3 Zrotation Yrotation Xrotation
                      JOINT RightHandPinky3
                      {
                        OFFSET -3.062664 -1e-06 -4e-06
                        CHANNELS 3 Zrotation Yrotation Xrotation
                        JOINT RightHandPinky4
                        {
                          OFFSET -1.546529 2e-06 4e-06
                          CHANNELS 3 Zrotation Yrotation Xrotation
                          JOINT RightHandPinkyEnd
                          {
                            OFFSET -1.952341 0.0 -4e-06
                            CHANNELS 3 Zrotation Yrotation Xrotation
                          }
                        }
                      }
                    }
                  }
                }
              }
            }
          }
        }
      }
    }
    JOINT LeftLeg
    {
      OFFSET -8.443107 2.567604 10.043214
      CHANNELS 3 Zrotation Yrotation Xrotation
      JOINT LeftShin
      {
        OFFSET 43.229198 1e-06 -1e-06
        CHANNELS 3 Zrotation Yrotation Xrotation
        JOINT LeftFoot
        {
          OFFSET 42.298611 1e-06 1e-06
          CHANNELS 3 Zrotation Yrotation Xrotation
          JOINT LeftToeBase
          {
            OFFSET 14.165858 1e-06 0.0
            CHANNELS 3 Zrotation Yrotation Xrotation
            JOINT LeftToeEnd
            {
              OFFSET 6.7141 -0.234461 0.0
              CHANNELS 3 Zrotation Yrotation Xrotation
            }
          }
        }
      }
    }
    JOINT RightLeg
    {
      OFFSET -8.303923 2.592729 -10.047278
      CHANNELS 3 Zrotation Yrotation Xrotation
      JOINT RightShin
      {
        OFFSET -43.369682 0.0 1e-06
        CHANNELS 3 Zrotation Yrotation Xrotation
        JOINT RightFoot
        {
          OFFSET -42.260784 4e-06 2e-06
          CHANNELS 3 Zrotation Yrotation Xrotation
          JOINT RightToeBase
          {
            OFFSET -14.222245 -2e-06 -1e-06
            CHANNELS 3 Zrotation Yrotation Xrotation
            JOINT RightToeEnd
            {
              OFFSET -6.660062 0.232574 -2e-06
              CHANNELS 3 Zrotation Yrotation Xrotation
            }
          }
        }
      }
    }
  }
}
MOTION
Frames: 4
Frame Time: 0.03333333333333333
0.0 0.0 0.0 0.0 -0.0 0.0 11.511565 86.909592 183.729584 90.328911 12.404 95.140045 6.100657 -0.886899 -0.987869 -8.644982 -0.888468 -2.897387 19.343292 1.08698 -4.77519 29.046579 2.972879 2.900756 -2.552295 -0.927465 1.382215 -31.518604 -2.339122 3.640521 6e-06 -0.0 -0.0 0.00087 -0.003931 -0.059767 0.042897 0.032167 -0.059637 -0.003574 -0.035113 -0.05399 -8.159714 -76.080009 23.646534 10.312028 -46.90564 -27.423697 92.262238 -0.739739 1.253629 1.825688 21.572657 48.706066 17.636621 -26.322725 52.411194 -19.46666 -14.395598 29.410393 -0.0 -8.774821 -1e-06 17.359312 -17.548742 5.419039 -0.609775 -1.795654 -3.889328 -4.807091 -11.046807 -2.93785 2e-06 -20.976015 -2e-06 -5.01997 -25.033552 -4.031884 8e-06 -2e-06 2e-06 -10.634531 -5.686969 -3.565587 10.573269 -17.922947 -3.113902 2e-06 -13.821205 -0.0 -0.501777 -31.181498 -4.027018 -11.597627 -60.245575 7.882607 -13.982712 -7.150197 -2.875043 13.772725 -8.401489 -3.218243 0.347733 -34.21154 0.771652 -0.963028 -17.733366 2.621017 -0.0 -0.0 0.0 -17.34642 -20.095217 -4.201781 21.757563 -1.638372 3.866426 1e-06 -6.338823 -0.0 -1.697589 -22.591743 -6.194009 2e-06 -4e-06 -2e-06 133.774673 -79.773285 61.94516 14.941683 -47.183208 -30.106968 89.625519 0.168131 2.547551 -0.990818 44.615246 55.423645 22.182108 -20.375883 49.933319 -16.701809 -16.743521 28.476524 -3e-06 -12.690596 -1e-06 15.614475 -17.486797 2.29839 -0.105921 -1.513856 -4.275881 -5.039038 -5.612869 -2.953557 1e-06 -11.02052 -1e-06 -6.111294 -15.89533 -3.840472 0.0 -0.0 -0.0 -10.283369 -5.680291 -4.341838 11.02829 -11.302402 -2.372634 -1.384268 -14.23858 -6.320123 -0.625434 -26.924187 -3.827606 -3.360319 -49.093571 -4.526908 -13.708527 -7.363474 -3.720938 18.141146 -14.052738 -3.242675 9e-06 -18.787266 -4e-06 -0.42971 -8.456041 2.555503 2e-06 0.0 0.0 -15.923532 -20.094482 -5.473587 30.419207 -7.190826 1.735927 1e-06 -8.162922 -1e-06 -1.861901 -22.861465 -6.167944 0.0 -3e-06 -0.0 -171.303574 4.407181 -1.71823 61.530621 -0.141863 -0.194941 -92.074982 -8.165069 0.958879 -26.650755 2.15282 1.953563 -0.999999 0.0 0.0 -44.846581 -3.31374 -15.68304 38.751244 0.924827 -0.863901 -22.634508 -9.912336 -11.870598 -10.729678 0.644575 1.490394 -1.000002 -1e-06 0.0 
0.0 0.0 0.0 0.0 -0.0 0.0 11.502581 86.710808 186.188934 90.501892 11.537466 95.73999 5.85998 -0.854313 -1.096943 -8.760475 -0.958902 -3.056332 19.082031 1.092815 -5.014264 28.381645 3.242859 2.816789 -2.57252 -0.948208 1.485237 -31.703287 -2.293091 3.582596 6e-06 -0.0 -0.0 0.00287 -0.005595 -0.075901 0.072838 0.028204 -0.068959 0.030774 -0.034088 -0.076658 -7.03194 -75.988907 22.510145 9.943688 -47.372379 -27.330545 92.486954 -0.928299 1.28033 1.647368 21.183414 48.878063 17.63662 -26.322725 52.411201 -19.46666 -14.395594 29.410393 -1e-06 -8.774821 -2e-06 17.32699 -17.493927 5.429255 -0.609777 -1.79565 -3.889327 -4.807087 -11.046808 -2.93785 6e-06 -20.976011 -2e-06 -5.019966 -25.033548 -4.031882 7e-06 1e-06 1e-06 -10.634534 -5.686968 -3.565587 10.573272 -17.922947 -3.113901 3e-06 -13.821205 -0.0 -0.501775 -31.181498 -4.027016 -11.570764 -60.169678 7.904378 -13.982714 -7.150195 -2.875042 13.772727 -8.40149 -3.218242 0.347735 -34.21154 0.771653 -0.963028 -17.733366 2.62102 0.0 1e-06 0.0 -17.346416 -20.095213 -4.201783 21.757555 -1.638375 3.866427 1e-06 -6.338823 1e-06 -1.697587 -22.59174 -6.194007 -1e-06 -3e-06 -3e-06 129.71373 -79.535271 66.144859 13.127683 -47.657135 -28.88863 91.344109 -0.055103 2.2986 -0.482679 44.422192 55.156265 22.182121 -20.375889 49.933331 -16.701826 -16.743534 28.476543 -2e-06 -12.690605 -3e-06 15.804856 -17.543913 2.25137 -0.105922 -1.513859 -4.275882 -5.039042 -5.612872 -2.953558 2e-06 -11.020526 -5e-06 -6.111297 -15.895336 -3.840475 1e-06 -0.0 0.0 -10.283373 -5.68029 -4.341839 11.028294 -11.302406 -2.372635 -1.384272 -14.238585 -6.320124 -0.625439 -26.924194 -3.827607 -3.411438 -49.275269 -4.433563 -13.708529 -7.363483 -3.720939 18.141153 -14.052739 -3.242676 7e-06 -18.787271 -5e-06 -0.429712 -8.456045 2.555503 2e-06 0.0 -0.0 -15.923543 -20.094494 -5.473588 30.419228 -7.190827 1.735928 3e-06 -8.162927 -1e-06 -1.861901 -22.861473 -6.167948 0.0 -4e-06 -2e-06 -169.847839 3.9527 -1.919238 60.700706 -0.19125 -0.132727 -89.432816 -7.123507 0.633936 -28.910439 2.196444 1.909499 -0.999998 0.0 0.0 -44.15218 -2.568274 -15.219539 40.254444 0.811245 -0.915426 -27.863577 -13.420156 -9.857053 -12.247713 0.649434 1.508184 -1.0 -0.0 -0.0 
0.0 0.0 0.0 0.0 -0.0 0.0 11.493274 86.466255 188.730698 90.598442 10.572024 96.28022 5.592901 -0.84304 -1.240072 -8.887662 -1.014573 -3.16734 18.843554 1.118671 -5.26054 27.650204 3.477107 2.750931 -2.57373 -0.943453 1.585745 -31.996695 -2.268769 3.557747 6e-06 -0.0 -0.0 0.00602 -0.003605 -0.075471 0.088393 0.026992 -0.064136 0.052487 -0.028932 -0.079286 -6.017449 -75.881012 21.403755 9.569624 -47.756329 -27.276339 92.854836 -1.156903 1.318024 1.519132 20.914108 48.938122 17.636637 -26.322739 52.411213 -19.466665 -14.3956 29.410395 -0.0 -8.774826 -3e-06 17.335781 -17.438452 5.427063 -0.609777 -1.795652 -3.889329 -4.807091 -11.046813 -2.93785 3e-06 -20.976021 0.0 -5.019972 -25.033566 -4.031882 6e-06 2e-06 1e-06 -10.634535 -5.686972 -3.565588 10.573275 -17.922955 -3.113901 3e-06 -13.821213 0.0 -0.501776 -31.181511 -4.027019 -11.576894 -60.134777 7.920174 -13.982717 -7.150199 -2.875044 13.772731 -8.401493 -3.218241 0.347732 -34.211559 0.771655 -0.96303 -17.733376 2.621021 1e-06 3e-06 1e-06 -17.346426 -20.095221 -4.201782 21.757566 -1.638375 3.866429 1e-06 -6.338825 0.0 -1.697591 -22.591747 -6.194009 1e-06 -3e-06 -2e-06 125.176086 -79.22448 70.937195 11.108714 -48.210094 -27.378164 93.174202 -0.128562 2.043122 0.176604 44.355396 55.024284 22.182117 -20.375887 49.933308 -16.701813 -16.743528 28.476524 -3e-06 -12.690598 -1e-06 15.983505 -17.627596 2.227681 -0.105922 -1.513853 -4.275881 -5.039038 -5.612871 -2.953555 2e-06 -11.02052 -1e-06 -6.111293 -15.89533 -3.84047 1e-06 0.0 0.0 -10.28337 -5.680287 -4.341835 11.028294 -11.302401 -2.372633 -1.384268 -14.238579 -6.320119 -0.625435 -26.924183 -3.827601 -3.548262 -49.440487 -4.297535 -13.708523 -7.363473 -3.720938 18.141146 -14.052739 -3.242674 8e-06 -18.787266 -2e-06 -0.429709 -8.456041 2.555503 2e-06 0.0 -0.0 -15.923531 -20.094479 -5.473586 30.419207 -7.190827 1.735926 2e-06 -8.162924 -1e-06 -1.861901 -22.861465 -6.167941 -1e-06 -3e-06 -0.0 -168.355896 3.442927 -2.105122 59.671772 -0.239594 -0.089246 -86.538628 -6.057335 0.344491 -31.216038 2.231516 1.856443 -0.999998 -0.0 0.0 -43.666203 -1.954159 -14.994929 42.167446 0.69324 -0.977003 -35.564152 -16.929697 -7.328734 -12.496976 0.649175 1.532088 -1.000003 1e-06 -0.0 
0.0 0.0 0.0 0.0 -0.0 0.0 11.481808 86.172829 191.37674 90.595627 9.588696 96.724876 5.28741 -0.841169 -1.398437 -9.00828 -1.07066 -3.267459 18.638706 1.171565 -5.488315 26.955082 3.616221 2.743086 -2.573689 -0.910372 1.638365 -32.283772 -2.291209 3.592427 6e-06 -0.0 -0.0 0.008153 -0.000819 -0.073951 0.081462 0.027049 -0.058788 0.054743 -0.023869 -0.080354 -5.300397 -75.838539 20.602596 9.312261 -48.056065 -27.304073 93.286118 -1.349738 1.352946 1.554667 20.839594 48.935249 17.636623 -26.32272 52.411186 -19.466658 -14.395596 29.410385 -1e-06 -8.77482 -2e-06 17.264254 -17.367682 5.449429 -0.609776 -1.795654 -3.889328 -4.807086 -11.046806 -2.937851 7e-06 -20.976011 -2e-06 -5.019969 -25.033556 -4.031882 8e-06 1e-06 0.0 -10.634533 -5.68697 -3.565586 10.573275 -17.922947 -3.113901 3e-06 -13.821205 1e-06 -0.501774 -31.181498 -4.027015 -11.626518 -60.078167 7.981474 -13.982712 -7.150195 -2.875043 13.772727 -8.401489 -3.218241 0.347737 -34.21154 0.771653 -0.963028 -17.73337 2.621019 1e-06 0.0 1e-06 -17.346415 -20.095211 -4.201783 21.757555 -1.638375 3.866428 2e-06 -6.338822 -0.0 -1.697587 -22.591738 -6.194006 0.0 -5e-06 -2e-06 120.197495 -78.872787 76.250343 9.044513 -48.772949 -25.765804 94.951614 -0.196656 1.691006 0.888505 44.498268 55.025143 22.182114 -20.375887 49.933315 -16.701817 -16.74353 28.476532 -3e-06 -12.690601 -1e-06 16.085344 -17.675632 2.229691 -0.105919 -1.513853 -4.275883 -5.039041 -5.612873 -2.953556 3e-06 -11.02052 -2e-06 -6.111293 -15.89533 -3.840472 -1e-06 -0.0 1e-06 -10.283368 -5.680287 -4.341839 11.028294 -11.302401 -2.372632 -1.384269 -14.23858 -6.320121 -0.625437 -26.924187 -3.827604 -3.69695 -49.564812 -4.160641 -13.708526 -7.363476 -3.720938 18.141153 -14.052738 -3.242676 8e-06 -18.78727 -3e-06 -0.429715 -8.456043 2.555504 3e-06 0.0 0.0 -15.923538 -20.094482 -5.473586 30.41921 -7.190827 1.735926 2e-06 -8.162925 -1e-06 -1.861901 -22.861469 -6.167945 0.0 -4e-06 -1e-06 -166.679352 2.87302 -2.282012 58.318096 -0.287812 -0.044947 -83.586876 -4.987235 0.107469 -33.646797 2.265217 1.798798 -0.999997 -0.0 -0.0 -43.345844 -1.554168 -15.019661 44.30434 0.594614 -1.027474 -44.343094 -19.665882 -4.644209 -11.743071 0.620688 1.545843 -1.000001 -1e-06 -0.0 
